<svg width="677" height="417" viewBox="0 0 677 417" fill="none" xmlns="http://www.w3.org/2000/svg">
<path d="M194.1 250.8H152.1V306H130.5V250.8H12V235.2L123.3 96H147.3L39.9 231.6H131.1V183H152.1V231.6H194.1V250.8Z" fill="#FFF4F8"/>
<path d="M194.1 250.8V252.8H196.1V250.8H194.1ZM152.1 250.8V248.8H150.1V250.8H152.1ZM152.1 306V308H154.1V306H152.1ZM130.5 306H128.5V308H130.5V306ZM130.5 250.8H132.5V248.8H130.5V250.8ZM12 250.8H10V252.8H12V250.8ZM12 235.2L10.4379 233.951L10 234.499V235.2H12ZM123.3 96V94H122.338L121.738 94.751L123.3 96ZM147.3 96L148.868 97.2417L151.435 94H147.3V96ZM39.9 231.6L38.3322 230.358L35.7646 233.6H39.9V231.6ZM131.1 231.6V233.6H133.1V231.6H131.1ZM131.1 183V181H129.1V183H131.1ZM152.1 183H154.1V181H152.1V183ZM152.1 231.6H150.1V233.6H152.1V231.6ZM194.1 231.6H196.1V229.6H194.1V231.6ZM194.1 248.8H152.1V252.8H194.1V248.8ZM150.1 250.8V306H154.1V250.8H150.1ZM152.1 304H130.5V308H152.1V304ZM132.5 306V250.8H128.5V306H132.5ZM130.5 248.8H12V252.8H130.5V248.8ZM14 250.8V235.2H10V250.8H14ZM13.5621 236.449L124.862 97.249L121.738 94.751L10.4379 233.951L13.5621 236.449ZM123.3 98H147.3V94H123.3V98ZM145.732 94.7582L38.3322 230.358L41.4678 232.842L148.868 97.2417L145.732 94.7582ZM39.9 233.6H131.1V229.6H39.9V233.6ZM133.1 231.6V183H129.1V231.6H133.1ZM131.1 185H152.1V181H131.1V185ZM150.1 183V231.6H154.1V183H150.1ZM152.1 233.6H194.1V229.6H152.1V233.6ZM192.1 231.6V250.8H196.1V231.6H192.1Z" fill="#DE81A5"/>
<path d="M642.1 250.8H600.1V306H578.5V250.8H460V235.2L571.3 96H595.3L487.9 231.6H579.1V183H600.1V231.6H642.1V250.8Z" fill="#FFF4F8"/>
<path d="M642.1 250.8V252.8H644.1V250.8H642.1ZM600.1 250.8V248.8H598.1V250.8H600.1ZM600.1 306V308H602.1V306H600.1ZM578.5 306H576.5V308H578.5V306ZM578.5 250.8H580.5V248.8H578.5V250.8ZM460 250.8H458V252.8H460V250.8ZM460 235.2L458.438 233.951L458 234.499V235.2H460ZM571.3 96V94H570.338L569.738 94.751L571.3 96ZM595.3 96L596.868 97.2417L599.435 94H595.3V96ZM487.9 231.6L486.332 230.358L483.765 233.6H487.9V231.6ZM579.1 231.6V233.6H581.1V231.6H579.1ZM579.1 183V181H577.1V183H579.1ZM600.1 183H602.1V181H600.1V183ZM600.1 231.6H598.1V233.6H600.1V231.6ZM642.1 231.6H644.1V229.6H642.1V231.6ZM642.1 248.8H600.1V252.8H642.1V248.8ZM598.1 250.8V306H602.1V250.8H598.1ZM600.1 304H578.5V308H600.1V304ZM580.5 306V250.8H576.5V306H580.5ZM578.5 248.8H460V252.8H578.5V248.8ZM462 250.8V235.2H458V250.8H462ZM461.562 236.449L572.862 97.249L569.738 94.751L458.438 233.951L461.562 236.449ZM571.3 98H595.3V94H571.3V98ZM593.732 94.7582L486.332 230.358L489.468 232.842L596.868 97.2417L593.732 94.7582ZM487.9 233.6H579.1V229.6H487.9V233.6ZM581.1 231.6V183H577.1V231.6H581.1ZM579.1 185H600.1V181H579.1V185ZM598.1 183V231.6H602.1V183H598.1ZM600.1 233.6H642.1V229.6H600.1V233.6ZM640.1 231.6V250.8H644.1V231.6H640.1Z" fill="#DE81A5"/>
<path fill-rule="evenodd" clip-rule="evenodd" d="M288.317 113.086C302.762 115.794 316.755 123.468 327.589 136.108C327.589 136.108 327.589 136.108 328.04 135.656C328.04 135.656 328.04 135.656 328.492 136.108C339.325 123.468 353.319 115.343 367.764 113.086C426.446 103.155 454.885 163.192 419.675 217.36C393.945 257.084 346.548 290.487 328.04 290.036C309.533 290.036 262.135 256.632 236.406 217.36C201.196 163.192 229.634 103.155 288.317 113.086Z" fill="#FFF4F8" stroke="#DE81A5" stroke-width="2" stroke-miterlimit="10" stroke-linecap="round" stroke-linejoin="round"/>
<path fill-rule="evenodd" clip-rule="evenodd" d="M309.085 203.367L310.891 204.721C321.725 213.298 337.072 212.395 347.003 202.464" fill="#FFF4F8"/>
<path d="M309.085 203.367L310.891 204.721C321.725 213.298 337.072 212.395 347.003 202.464" stroke="#DE81A5" stroke-width="2" stroke-miterlimit="10" stroke-linecap="round" stroke-linejoin="round"/>
<path d="M289.22 191.63C292.71 191.63 295.54 188.801 295.54 185.31C295.54 181.82 292.71 178.991 289.22 178.991C285.73 178.991 282.9 181.82 282.9 185.31C282.9 188.801 285.73 191.63 289.22 191.63Z" fill="#DE81A5"/>
<path d="M361.894 191.63C365.385 191.63 368.214 188.801 368.214 185.31C368.214 181.82 365.385 178.991 361.894 178.991C358.404 178.991 355.575 181.82 355.575 185.31C355.575 188.801 358.404 191.63 361.894 191.63Z" fill="#DE81A5"/>
<path d="M485.905 48.8696L484.861 56.8873L491.518 61.4766L483.57 62.9617L481.262 70.7107L477.394 63.6108L469.311 63.8106L474.868 57.9376L472.18 50.3121L479.483 53.7823L485.905 48.8696Z" fill="#DE81A5" fill-opacity="0.2"/>
<path d="M15.3693 59.8735L25.0775 67.3004L36.1178 62.0542L32.0544 73.5824L40.4554 82.4611L28.2358 82.159L22.3877 92.8925L18.899 81.1776L6.88364 78.9326L16.9471 71.9945L15.3693 59.8735Z" fill="#DE81A5" fill-opacity="0.2"/>
<path d="M473.526 332.135L473.95 340.571L481.649 344.046L473.757 347.056L472.832 355.452L467.53 348.876L459.259 350.591L463.875 343.516L459.688 336.18L467.842 338.384L473.526 332.135Z" fill="#DE81A5" fill-opacity="0.2"/>
<path d="M669.177 125.541L669.438 130.725L674.169 132.861L669.319 134.711L668.751 139.87L665.492 135.829L660.41 136.883L663.246 132.535L660.673 128.027L665.684 129.381L669.177 125.541Z" fill="#DE81A5" fill-opacity="0.2"/>
<path d="M254.177 399.541L254.438 404.725L259.169 406.861L254.319 408.711L253.751 413.87L250.492 409.829L245.41 410.883L248.246 406.535L245.673 402.027L250.684 403.381L254.177 399.541Z" fill="#DE81A5" fill-opacity="0.2"/>
<path d="M57.1772 350.541L57.4378 355.725L62.1692 357.861L57.3192 359.711L56.7506 364.87L53.4925 360.829L48.4097 361.883L51.2461 357.535L48.6734 353.027L53.6844 354.381L57.1772 350.541Z" fill="#DE81A5" fill-opacity="0.2"/>
<path d="M266.121 3.98996L266.53 12.1298L273.959 15.4823L266.344 18.3868L265.451 26.4879L260.335 20.1432L252.355 21.7974L256.808 14.9716L252.769 7.89294L260.637 10.0191L266.121 3.98996Z" fill="#DE81A5" fill-opacity="0.2"/>
</svg>
