<svg width="1920" height="405" viewBox="0 0 1920 405" fill="none" xmlns="http://www.w3.org/2000/svg">
<path d="M1025.95 330.161L1042.3 340.48L1058.94 330.648L1054.18 349.384L1068.67 362.176L1049.38 363.436L1041.69 381.174L1034.54 363.217L1015.29 361.387L1030.16 349.029L1025.95 330.161Z" fill="#DE81A5" fill-opacity="0.2"/>
<path d="M1482.95 317.161L1499.3 327.48L1515.94 317.648L1511.18 336.384L1525.67 349.176L1506.38 350.436L1498.69 368.174L1491.54 350.217L1472.29 348.387L1487.16 336.029L1482.95 317.161Z" fill="#DE81A5" fill-opacity="0.2"/>
<path d="M1443.95 40.1605L1460.3 50.4801L1476.94 40.6482L1472.18 59.3842L1486.67 72.1764L1467.38 73.4363L1459.69 91.1743L1452.54 73.2169L1433.29 71.3873L1448.16 59.0292L1443.95 40.1605Z" fill="#DE81A5" fill-opacity="0.2"/>
<path d="M1011.53 101.946L1011.3 117.436L1024.97 124.713L1010.17 129.28L1007.47 144.536L998.557 131.869L983.215 134.019L992.506 121.623L985.72 107.697L1000.38 112.703L1011.53 101.946Z" fill="#DE81A5" fill-opacity="0.2"/>
<path d="M1416.84 238.44L1422.42 245.693L1431.42 244.038L1426.25 251.589L1430.6 259.64L1421.82 257.053L1415.51 263.683L1415.26 254.533L1407 250.581L1415.63 247.513L1416.84 238.44Z" fill="#DE81A5" fill-opacity="0.2"/>
<path d="M1619.91 61.3865L1623.78 66.4193L1630.03 65.271L1626.44 70.5101L1629.46 76.0958L1623.37 74.3009L1618.99 78.9013L1618.81 72.5529L1613.08 69.8104L1619.07 67.6817L1619.91 61.3865Z" fill="#DE81A5" fill-opacity="0.2"/>
<path d="M1628.22 274.666L1630.92 278.181L1635.29 277.379L1632.78 281.037L1634.89 284.937L1630.64 283.684L1627.58 286.896L1627.46 282.464L1623.46 280.549L1627.63 279.062L1628.22 274.666Z" fill="#DE81A5" fill-opacity="0.2"/>
<path d="M860.219 312.666L862.924 316.181L867.286 315.379L864.779 319.037L866.889 322.937L862.636 321.684L859.578 324.896L859.456 320.464L855.456 318.549L859.634 317.062L860.219 312.666Z" fill="#DE81A5" fill-opacity="0.2"/>
<path d="M891.219 41.6663L893.924 45.1806L898.286 44.3788L895.779 48.0372L897.889 51.9375L893.636 50.6842L890.578 53.8965L890.456 49.4636L886.456 47.5486L890.634 46.0622L891.219 41.6663Z" fill="#DE81A5" fill-opacity="0.2"/>
<path d="M967.219 235.666L969.924 239.181L974.286 238.379L971.779 242.037L973.889 245.937L969.636 244.684L966.578 247.896L966.456 243.464L962.456 241.549L966.634 240.062L967.219 235.666Z" fill="#DE81A5" fill-opacity="0.2"/>
<path d="M1708.22 165.666L1710.92 169.181L1715.29 168.379L1712.78 172.037L1714.89 175.937L1710.64 174.684L1707.58 177.896L1707.46 173.464L1703.46 171.549L1707.63 170.062L1708.22 165.666Z" fill="#DE81A5" fill-opacity="0.2"/>
<path d="M1521.84 168.44L1527.42 175.693L1536.42 174.038L1531.25 181.589L1535.6 189.64L1526.82 187.053L1520.51 193.683L1520.26 184.533L1512 180.581L1520.63 177.513L1521.84 168.44Z" fill="#DE81A5" fill-opacity="0.2"/>
<path d="M1110.84 228.44L1116.42 235.693L1125.42 234.038L1120.25 241.589L1124.6 249.64L1115.82 247.053L1109.51 253.683L1109.26 244.533L1101 240.581L1109.63 237.513L1110.84 228.44Z" fill="#DE81A5" fill-opacity="0.2"/>
<path d="M1102.84 59.4395L1108.42 66.6932L1117.42 65.0383L1112.25 72.5893L1116.6 80.6398L1107.82 78.0529L1101.51 84.6833L1101.26 75.5335L1093 71.5808L1101.63 68.5128L1102.84 59.4395Z" fill="#DE81A5" fill-opacity="0.2"/>
</svg>
