<svg width="140" height="65" viewBox="0 0 140 65" fill="none" xmlns="http://www.w3.org/2000/svg">
<path d="M133.669 48.2933L133.019 53.2867L137.165 56.145L132.215 57.0698L130.778 61.896L128.369 57.4741L123.335 57.5986L126.796 53.9409L125.122 49.1917L129.67 51.3529L133.669 48.2933Z" fill="#DE81A5" fill-opacity="0.4"/>
<path d="M6.33162 22.5026L10.3311 25.5623L14.8793 23.401L13.2053 28.1502L16.6662 31.808L11.6322 31.6835L9.22297 36.1053L7.78574 31.2792L2.83582 30.3543L6.98162 27.4961L6.33162 22.5026Z" fill="#DE81A5" fill-opacity="0.4"/>
<path d="M110.048 1.64373L110.217 4.99707L113.277 6.37818L110.14 7.57475L109.772 10.9121L107.665 8.2983L104.377 8.9798L106.212 6.1678L104.548 3.25162L107.789 4.12753L110.048 1.64373Z" fill="#DE81A5" fill-opacity="0.4"/>
<g clip-path="url(#clip0)">
<path d="M62.3206 31.2236C62.3206 22.5316 72.7847 15.443 85.6961 15.443C98.6075 15.443 109.156 22.5316 109.156 31.2236C109.156 37.9746 102.827 43.7974 93.8817 45.9915C93.8817 45.9915 94.3881 52.7426 98.7763 54.6835C103.164 56.6244 85.2741 54.0084 82.8269 47.0042C82.8269 46.9198 82.8269 46.9198 82.8269 46.8354C71.2657 45.9071 62.3206 39.2405 62.3206 31.2236Z" stroke="#DE81A5" stroke-width="2" stroke-miterlimit="10" stroke-linecap="round" stroke-linejoin="round"/>
<path d="M84.4302 18.9029C84.4302 8.94514 72.4471 0.843872 57.6792 0.843872C42.9113 0.843872 30.8438 8.94514 30.8438 18.9029C30.8438 26.6667 38.1011 33.2489 48.3965 35.865C48.3965 35.865 47.8058 43.5443 42.7425 45.8228C37.6792 48.1013 58.1855 45.0633 60.9703 37.0464C60.9703 36.962 60.9703 36.962 61.0547 36.8776C74.2193 35.6962 84.4302 28.1013 84.4302 18.9029Z" fill="#FFF4F8" stroke="#DE81A5" stroke-width="2" stroke-miterlimit="10" stroke-linecap="round" stroke-linejoin="round"/>
<path d="M45.021 17.0464H70.3374" stroke="#DE81A5" stroke-width="2" stroke-miterlimit="10" stroke-linecap="round" stroke-linejoin="round"/>
<path d="M49.2402 21.7721H66.1179" stroke="#DE81A5" stroke-width="2" stroke-miterlimit="10" stroke-linecap="round" stroke-linejoin="round"/>
</g>
<defs>
<clipPath id="clip0">
<rect width="80" height="56.1181" fill="white" transform="translate(30)"/>
</clipPath>
</defs>
</svg>
