<svg width="140" height="78" viewBox="0 0 140 78" fill="none" xmlns="http://www.w3.org/2000/svg">
<g clip-path="url(#clip0)">
<path fill-rule="evenodd" clip-rule="evenodd" d="M61.5002 1.20005C64.7002 1.80005 67.8002 3.50005 70.2002 6.30005C70.2002 6.30005 70.2002 6.30005 70.3002 6.20005C70.3002 6.20005 70.3002 6.20005 70.4002 6.30005C72.8002 3.50005 75.9002 1.70005 79.1002 1.20005C92.1002 -0.999953 98.4002 12.3 90.6002 24.3C84.9002 33.1 74.4002 40.5 70.3002 40.4C66.2002 40.4 55.7002 33 50.0002 24.3C42.2002 12.3 48.5002 -0.999953 61.5002 1.20005Z" fill="#FFF4F8" stroke="#DE81A5" stroke-width="2" stroke-miterlimit="10" stroke-linecap="round" stroke-linejoin="round"/>
<path fill-rule="evenodd" clip-rule="evenodd" d="M66.1001 21.2L66.5001 21.5C68.9001 23.4 72.3001 23.2 74.5001 21" fill="#FFF4F8"/>
<path d="M66.1001 21.2L66.5001 21.5C68.9001 23.4 72.3001 23.2 74.5001 21" stroke="#DE81A5" stroke-width="2" stroke-miterlimit="10" stroke-linecap="round" stroke-linejoin="round"/>
<path d="M61.6998 18.6C62.473 18.6 63.0998 17.9732 63.0998 17.2C63.0998 16.4269 62.473 15.8 61.6998 15.8C60.9266 15.8 60.2998 16.4269 60.2998 17.2C60.2998 17.9732 60.9266 18.6 61.6998 18.6Z" fill="#DE81A5"/>
<path d="M77.7999 18.6C78.5731 18.6 79.1999 17.9732 79.1999 17.2C79.1999 16.4269 78.5731 15.8 77.7999 15.8C77.0267 15.8 76.3999 16.4269 76.3999 17.2C76.3999 17.9732 77.0267 18.6 77.7999 18.6Z" fill="#DE81A5"/>
<path fill-rule="evenodd" clip-rule="evenodd" d="M86.4998 68.9V76.4H73.9998C73.9998 76.4 71.0998 58 77.7998 53.4C83.0998 49.7 89.9998 43.7 92.4998 41.4C93.0998 40.9 93.9998 40.8 94.5998 41.3C95.3998 41.9 95.4998 43 94.7998 43.7L86.1998 53.6C85.7998 54.1 86.2998 54.8 86.8998 54.6C90.6998 53 98.1998 49.2 99.4998 44L103.5 30.9C103.8 30 104.6 29.4 105.5 29.4C106.8 29.4 107.8 30.6 107.6 31.9L103.8 51C103.6 52.2 102.9 53.2 102 54L88.0998 65.3C87.0998 66.2 86.4998 67.5 86.4998 68.9Z" stroke="#DE81A5" stroke-width="2" stroke-miterlimit="10" stroke-linecap="round" stroke-linejoin="round"/>
<path fill-rule="evenodd" clip-rule="evenodd" d="M54.1998 68.9V76.4H66.6998C66.6998 76.4 69.5998 58 62.8998 53.4C57.5998 49.7 50.6998 43.7 48.1998 41.4C47.5998 40.9 46.6998 40.8 46.0998 41.3C45.2998 41.9 45.1998 43 45.8998 43.7L54.4998 53.6C54.8998 54.1 54.3998 54.8 53.7998 54.6C49.9998 53 42.4998 49.2 41.1998 44L37.1998 30.9C36.8998 30 36.0998 29.4 35.1998 29.4C33.8998 29.4 32.8998 30.6 33.0998 31.9L36.8998 51C37.0998 52.2 37.7998 53.2 38.6998 54L52.4998 65.4C53.5998 66.2 54.1998 67.5 54.1998 68.9Z" stroke="#DE81A5" stroke-width="2" stroke-miterlimit="10" stroke-linecap="round" stroke-linejoin="round"/>
</g>
<path d="M133.575 52.4138L132.915 57.4806L137.122 60.3808L132.099 61.3192L130.641 66.2162L128.197 61.7294L123.089 61.8557L126.6 58.1443L124.902 53.3254L129.517 55.5184L133.575 52.4138Z" fill="#DE81A5" fill-opacity="0.2"/>
<path d="M6.42456 31.1056L10.4827 34.2101L15.0977 32.0172L13.3991 36.8361L16.9109 40.5475L11.8029 40.4212L9.35834 44.908L7.90002 40.011L2.87745 39.0725L7.08409 36.1723L6.42456 31.1056Z" fill="#DE81A5" fill-opacity="0.2"/>
<path d="M121.637 1.66786L121.808 5.07042L124.913 6.4718L121.73 7.68594L121.357 11.0723L119.218 8.42011L115.882 9.11161L117.744 6.25833L116.055 3.29935L119.344 4.18811L121.637 1.66786Z" fill="#DE81A5" fill-opacity="0.2"/>
<defs>
<clipPath id="clip0">
<rect width="76.6" height="77.3" fill="white" transform="translate(32)"/>
</clipPath>
</defs>
</svg>
