<svg width="140" height="80" viewBox="0 0 140 80" fill="none" xmlns="http://www.w3.org/2000/svg">
<g clip-path="url(#clip0)">
<path d="M54.3354 37.5831C55.6702 37.5831 56.7523 36.501 56.7523 35.1662C56.7523 33.8314 55.6702 32.7493 54.3354 32.7493C53.0005 32.7493 51.9185 33.8314 51.9185 35.1662C51.9185 36.501 53.0005 37.5831 54.3354 37.5831Z" fill="#DE81A5"/>
<path d="M84.9091 37.5831C86.2439 37.5831 87.326 36.501 87.326 35.1662C87.326 33.8314 86.2439 32.7493 84.9091 32.7493C83.5743 32.7493 82.4922 33.8314 82.4922 35.1662C82.4922 36.501 83.5743 37.5831 84.9091 37.5831Z" fill="#DE81A5"/>
<path d="M54.3354 35.4078V45.9214C54.3354 54.3807 61.2237 61.2689 69.6829 61.2689C78.1421 61.2689 84.9095 54.3807 84.9095 45.9214V35.6495" stroke="#DE81A5" stroke-width="2" stroke-miterlimit="10" stroke-linecap="round" stroke-linejoin="round"/>
<path fill-rule="evenodd" clip-rule="evenodd" d="M46.2388 20.3022V4.22964C46.2388 2.5378 46.7222 1.2085 47.4472 1.2085H69.6829C70.408 1.2085 70.8913 2.5378 70.8913 4.22964V19.8188" fill="#FFF4F8"/>
<path d="M46.2388 20.3022V4.22964C46.2388 2.5378 46.7222 1.2085 47.4472 1.2085H69.6829C70.408 1.2085 70.8913 2.5378 70.8913 4.22964V19.8188" stroke="#DE81A5" stroke-width="2" stroke-miterlimit="10" stroke-linecap="round" stroke-linejoin="round"/>
<path d="M46.2388 20.3021V8.94263" stroke="#DE81A5" stroke-width="2" stroke-miterlimit="10" stroke-linecap="round" stroke-linejoin="round"/>
<path fill-rule="evenodd" clip-rule="evenodd" d="M62.4319 20.6647L60.7401 17.7644C60.015 16.5559 60.4984 15.1058 61.7069 14.3807L81.7673 2.7795C83.0966 2.05442 84.5467 2.41696 85.2718 3.62542L95.1812 20.6647" fill="#FFF4F8"/>
<path d="M62.4319 20.6647L60.7401 17.7644C60.015 16.5559 60.4984 15.1058 61.7069 14.3807L81.7673 2.7795C83.0966 2.05442 84.5467 2.41696 85.2718 3.62542L95.1812 20.6647" stroke="#DE81A5" stroke-width="2" stroke-miterlimit="10" stroke-linecap="round" stroke-linejoin="round"/>
<path d="M88.897 9.78857H96.1477C96.6311 9.78857 96.9936 10.0303 97.2353 10.3928L103.157 20.7856" stroke="#DE81A5" stroke-width="2" stroke-miterlimit="10" stroke-linecap="round" stroke-linejoin="round"/>
<path d="M36.2085 20.6647L42.1299 10.272C42.3716 9.90942 42.7342 9.66772 43.2176 9.66772H46.2387" stroke="#DE81A5" stroke-width="2" stroke-miterlimit="10" stroke-linecap="round" stroke-linejoin="round"/>
<path fill-rule="evenodd" clip-rule="evenodd" d="M103.157 78.7916H36.2085L39.713 62.1148C41.4049 54.0181 41.4049 45.5589 39.713 37.4623L36.2085 20.6647H103.157L99.6526 37.4623C97.9608 45.5589 97.9608 54.0181 99.6526 62.1148L103.157 78.7916Z" stroke="#DE81A5" stroke-width="2" stroke-miterlimit="10" stroke-linecap="round" stroke-linejoin="round"/>
</g>
<path d="M133.575 53.4138L132.915 58.4806L137.122 61.3808L132.099 62.3192L130.641 67.2162L128.197 62.7294L123.089 62.8557L126.6 59.1443L124.902 54.3254L129.517 56.5184L133.575 53.4138Z" fill="#DE81A5" fill-opacity="0.2"/>
<path d="M6.42456 32.1056L10.4827 35.2101L15.0977 33.0172L13.3991 37.8361L16.9109 41.5475L11.8029 41.4212L9.35834 45.908L7.90002 41.011L2.87745 40.0725L7.08409 37.1723L6.42456 32.1056Z" fill="#DE81A5" fill-opacity="0.2"/>
<path d="M121.637 2.66786L121.808 6.07042L124.913 7.4718L121.73 8.68594L121.357 12.0723L119.218 9.42011L115.882 10.1116L117.744 7.25833L116.055 4.29935L119.344 5.18811L121.637 2.66786Z" fill="#DE81A5" fill-opacity="0.2"/>
<defs>
<clipPath id="clip0">
<rect width="69.3656" height="80" fill="white" transform="translate(35)"/>
</clipPath>
</defs>
</svg>
