<svg width="80" height="55" viewBox="0 0 80 55" fill="none" xmlns="http://www.w3.org/2000/svg">
<path d="M76.6 5.3C74.43 1.44 72.075 0.73 67.28 0.46C62.49 0.135 50.445 0 40.01 0C29.555 0 17.505 0.135 12.72 0.455C7.935 0.73 5.575 1.435 3.385 5.3C1.15 9.155 0 15.795 0 27.485C0 27.495 0 27.5 0 27.5C0 27.51 0 27.515 0 27.515V27.525C0 39.165 1.15 45.855 3.385 49.67C5.575 53.53 7.93 54.23 12.715 54.555C17.505 54.835 29.555 55 40.01 55C50.445 55 62.49 54.835 67.285 54.56C72.08 54.235 74.435 53.535 76.605 49.675C78.86 45.86 80 39.17 80 27.53C80 27.53 80 27.515 80 27.505C80 27.505 80 27.495 80 27.49C80 15.795 78.86 9.155 76.6 5.3Z" fill="black" fill-opacity="0.5"/>
<path d="M31.5145 39.0913C30.848 39.4912 30 39.0111 30 38.2338V16.7662C30 15.9889 30.848 15.5088 31.5145 15.9087L49.4042 26.6425C50.0515 27.0309 50.0515 27.9691 49.4042 28.3575L31.5145 39.0913Z" fill="#FAFAFA"/>
</svg>
