<svg width="24" height="15" viewBox="0 0 24 15" fill="none" xmlns="http://www.w3.org/2000/svg">
<path d="M14.124 3.47361C14.124 4.09316 14.0997 4.6771 14.0962 5.25393C14.0887 5.56855 14.1249 5.88268 14.2038 6.18681C14.2516 6.38095 14.3585 6.55435 14.509 6.68174C14.5462 6.71175 14.5899 6.73224 14.6363 6.74153C14.6828 6.75081 14.7307 6.74863 14.7761 6.73515C14.9382 6.68203 15.0865 6.59195 15.2098 6.47166C15.5064 6.19106 15.7738 5.87962 16.0077 5.54234C16.8372 4.36361 17.5212 3.0839 18.044 1.73246C18.1377 1.50458 18.2279 1.28026 18.3146 1.04882C18.3766 0.871931 18.5002 0.724824 18.6615 0.635786C18.7625 0.597631 18.8696 0.579507 18.9772 0.582376C19.0258 0.582376 19.0778 0.582376 19.1298 0.582376H22.5989C22.8348 0.582376 23.0707 0.582376 23.2927 0.582376C23.4121 0.598151 23.5288 0.630492 23.6396 0.678513C23.7296 0.705456 23.8081 0.762507 23.8628 0.840581C23.9175 0.918656 23.9452 1.01327 23.9414 1.10935C23.9414 1.3538 23.8943 1.59583 23.8027 1.82148C23.5701 2.39952 23.2769 2.9499 22.9285 3.46293C22.2797 4.48127 21.5408 5.43196 20.847 6.40401C20.6146 6.72803 20.396 7.06273 20.1879 7.40099C20.0647 7.58818 20.0083 7.81336 20.0283 8.03834C20.0579 8.25627 20.1552 8.45857 20.3058 8.61517C20.5591 8.89289 20.8158 9.16706 21.0864 9.42699C21.8113 10.0912 22.4917 10.8049 23.1227 11.5634C23.4169 11.9234 23.6706 12.3164 23.879 12.7348C23.9302 12.8478 23.9652 12.9677 23.9831 13.0909C24.0144 13.2271 24.002 13.3701 23.9476 13.4985C23.8932 13.6269 23.7997 13.7337 23.6813 13.803C23.4494 13.9534 23.1819 14.0359 22.9076 14.0416C21.8843 14.0701 20.8609 14.0629 19.841 14.1235C19.185 14.1562 18.5418 13.9294 18.044 13.4897C17.6681 13.1725 17.3199 12.8222 17.0033 12.4428C16.6564 12.0547 16.3338 11.6631 15.9626 11.2928C15.8049 11.1338 15.6262 10.9984 15.4318 10.8904C15.3072 10.8121 15.1594 10.782 15.015 10.8055C14.8707 10.829 14.7392 10.9045 14.6443 11.0186C14.4725 11.2311 14.3524 11.4825 14.2939 11.7521C14.1827 12.1629 14.1209 12.5863 14.1101 13.0125C14.1048 13.1186 14.0944 13.2244 14.0789 13.3294C14.0594 13.4641 14.0035 13.5905 13.9177 13.6943C13.8319 13.7981 13.7195 13.8753 13.5932 13.9169C13.4251 13.9892 13.2447 14.0267 13.0624 14.0273C12.6045 14.0273 12.1466 14.0273 11.6748 14.0273C10.8665 14.0177 10.0664 13.8598 9.31236 13.5609C7.9507 13.0344 6.73234 12.1795 5.76004 11.0684C4.79517 9.97894 3.93545 8.79603 3.19292 7.53629C2.01684 5.57925 0.973647 3.54129 0.0707601 1.43693C0.0118301 1.29812 -0.0108853 1.14596 0.00484779 0.99541C0.0081789 0.939122 0.0264166 0.884835 0.0575944 0.838402C0.0887723 0.79197 0.131707 0.755153 0.18177 0.731923C0.352828 0.643268 0.541725 0.596931 0.733352 0.596619H4.18161C4.38609 0.610834 4.58215 0.6857 4.74596 0.812119C4.90978 0.938537 5.03429 1.11107 5.10438 1.30875C5.40223 2.11694 5.76061 2.90025 6.17632 3.65164C6.62639 4.48811 7.13295 5.29122 7.69231 6.05507C7.88205 6.33762 8.11657 6.58554 8.38612 6.78856C8.47197 6.86221 8.5774 6.9077 8.68874 6.91913C8.80008 6.93056 8.91219 6.9074 9.01055 6.85265C9.11811 6.78659 9.20205 6.6867 9.24992 6.5678C9.37592 6.27071 9.45327 5.95431 9.47888 5.63135C9.5546 4.87906 9.56969 4.12163 9.52398 3.36679C9.51553 2.91624 9.47027 2.46722 9.38868 2.02443C9.36787 1.91405 9.32971 1.80723 9.30889 1.69685C9.28387 1.59421 9.2374 1.49837 9.17271 1.41598C9.10802 1.3336 9.02664 1.26663 8.93423 1.21973C8.69612 1.06781 8.42618 0.976267 8.14676 0.952682C8.06697 0.952682 8.03921 0.909954 8.0739 0.838742C8.10361 0.767857 8.14335 0.701866 8.19185 0.642907C8.44556 0.35971 8.78812 0.176977 9.15972 0.126615C9.69809 0.0317842 10.2441 -0.00994672 10.7902 0.00199285C11.3973 0.00199285 12.0078 0.00199285 12.6184 0.0411598C12.8833 0.0584012 13.1459 0.102531 13.4024 0.172903C13.6066 0.214562 13.7911 0.325889 13.9259 0.48879C14.0607 0.65169 14.1378 0.856589 14.1448 1.07018C14.1743 1.41349 14.1847 1.75824 14.176 2.10277C14.1691 2.56921 14.1413 3.03921 14.124 3.47361Z" fill="#DE81A5"/>
</svg>
