<svg width="12" height="14" viewBox="0 0 12 14" fill="none" xmlns="http://www.w3.org/2000/svg">
<path d="M6.07229 0C2.74699 0 0 2.74227 0 6.06186C0 8.51546 3.3253 11.9794 5.06024 13.567C5.63855 14.1443 6.50602 14.1443 7.08434 13.567C8.6747 11.9794 12 8.51546 12 6.06186C12 2.74227 9.39759 0 6.07229 0ZM6.07229 7.07217C5.20482 7.07217 4.62651 6.35052 4.62651 5.62887C4.62651 4.76289 5.3494 4.18557 6.07229 4.18557C6.93976 4.18557 7.51807 4.90722 7.51807 5.62887C7.51807 6.35052 6.79518 7.07217 6.07229 7.07217Z" fill="#DE81A5"/>
</svg>
