<svg width="10" height="15" viewBox="0 0 10 15" fill="none" xmlns="http://www.w3.org/2000/svg">
<path d="M8.32057 5.33036H7.47129C7.47129 5.19946 7.47129 4.12263 7.47129 4.03372C7.41415 3.17659 7.03767 2.374 6.41876 1.78986C5.79984 1.20573 4.98517 0.884136 4.14115 0.890757C3.29712 0.897377 2.48742 1.23172 1.87742 1.82549C1.26742 2.41926 0.903144 3.22766 0.858992 4.08558C0.858992 4.16709 0.858992 5.2785 0.858992 5.32048H0C0 5.30813 0 4.10781 0 4.03866C0.0495519 2.9557 0.505195 1.9333 1.2731 1.182C2.04101 0.430701 3.06272 0.00770078 4.12783 0.000104112C5.19295 -0.00749256 6.22038 0.400893 6.99856 1.14116C7.77673 1.88144 8.24641 2.89723 8.31087 3.97938C8.31815 4.08311 8.32057 5.31801 8.32057 5.33036Z" fill="#DE81A5"/>
<path d="M6.81605 5.33033H5.96677C5.96677 5.23154 5.96677 4.09543 5.96677 4.0164C5.92929 3.55245 5.72066 3.12015 5.38282 2.80638C5.04498 2.4926 4.60297 2.32062 4.14564 2.325C3.6883 2.32938 3.24955 2.5098 2.91757 2.82998C2.58559 3.15017 2.38499 3.5864 2.35609 4.05097C2.35609 4.11519 2.35609 5.30069 2.35609 5.33033H1.50195C1.50195 5.31798 1.50195 4.06085 1.50195 4.0164C1.56517 3.34786 1.86943 2.72685 2.35603 2.27322C2.84263 1.81959 3.47707 1.56549 4.1369 1.55997C4.79674 1.55444 5.4352 1.79788 5.92906 2.2433C6.42293 2.68872 6.73719 3.30455 6.8112 3.97194C6.81605 4.03862 6.81605 5.31798 6.81605 5.33033Z" fill="#DE81A5"/>
<path d="M3.27816 8.85972V8.71153C3.27816 7.34079 3.27816 5.97252 3.27816 4.60178C3.27164 4.43693 3.31458 4.27396 3.40127 4.13454C3.48796 3.99513 3.61429 3.88588 3.76346 3.82133C3.89318 3.75795 4.03662 3.72927 4.18026 3.73797C4.32389 3.74668 4.46297 3.79249 4.58438 3.87109C4.70579 3.94968 4.80553 4.05847 4.87417 4.18718C4.94282 4.31589 4.97812 4.46028 4.97673 4.60672V7.59024C5.53968 7.18766 6.0347 7.24694 6.4739 7.77301C6.58613 7.59407 6.75342 7.458 6.94966 7.38606C7.14589 7.31412 7.36 7.31036 7.55856 7.37537C8.0293 7.52356 8.23071 7.88909 8.24769 8.39293C8.42555 8.24523 8.64908 8.16647 8.87859 8.17064C9.10574 8.17245 9.32338 8.26376 9.4858 8.4254C9.64823 8.58704 9.74282 8.80644 9.74971 9.03754C9.74971 10.1835 9.77398 11.3295 9.74971 12.4755C9.72422 13.0733 9.47734 13.6392 9.0587 14.0593C8.64007 14.4795 8.08071 14.7228 7.49304 14.7403C6.89857 14.7787 6.30198 14.7663 5.70954 14.7033C4.11288 14.4711 3.01852 13.5622 2.53807 11.9865C2.24235 11.0627 1.84939 10.1742 1.36605 9.33639C1.30296 9.22278 1.23987 9.10917 1.18164 8.99309C1.14188 8.91936 1.11778 8.83795 1.11092 8.75413C1.10406 8.67032 1.11459 8.58597 1.14181 8.50656C1.16904 8.42715 1.21236 8.35445 1.26897 8.29318C1.32557 8.23191 1.3942 8.18343 1.47039 8.15088C1.74275 8.02165 2.05093 7.99337 2.3416 8.07095C2.63228 8.14852 2.88717 8.32706 3.0622 8.57569C3.13014 8.66954 3.18838 8.76834 3.25147 8.86466L3.27816 8.85972ZM3.56206 7.60012V7.67668C3.56206 8.64978 3.56206 9.62371 3.56206 10.5985C3.56206 10.7022 3.56206 10.8059 3.41647 10.8059C3.27088 10.8059 3.27088 10.7071 3.27331 10.6009C3.27331 10.4231 3.27331 10.2453 3.27331 10.0699C3.26547 9.58635 3.10559 9.11807 2.81712 8.73376C2.68022 8.54865 2.48549 8.41649 2.26498 8.35903C2.04446 8.30157 1.81129 8.32224 1.60385 8.41762C1.56093 8.43441 1.52213 8.46054 1.49017 8.49419C1.45821 8.52784 1.43386 8.5682 1.41884 8.61243C1.40381 8.65666 1.39847 8.7037 1.40318 8.75026C1.4079 8.79682 1.42255 8.84176 1.44613 8.88195C1.50436 8.99803 1.56988 9.11164 1.63297 9.22525C2.122 10.0587 2.51217 10.9483 2.79528 11.8753C2.98683 12.5693 3.38336 13.1865 3.93114 13.6433C4.47891 14.1001 5.15144 14.3744 5.85756 14.4291C6.36956 14.4736 6.89126 14.4563 7.40811 14.4538C7.94186 14.4535 8.45459 14.242 8.83807 13.8642C9.22154 13.4863 9.44576 12.9715 9.46338 12.4286C9.48765 11.3073 9.46338 10.1835 9.46338 9.05977C9.46277 8.89879 9.40016 8.74448 9.28901 8.62996C9.17786 8.51544 9.02702 8.44985 8.86888 8.44726C8.71307 8.44614 8.56263 8.50514 8.44783 8.61236C8.33302 8.71959 8.26238 8.86709 8.25012 9.02519C8.25012 9.12893 8.21615 9.22278 8.09967 9.21784C7.9832 9.2129 7.95408 9.11411 7.95408 9.00791C7.95408 8.76093 7.95408 8.49419 7.95408 8.2398C7.93714 8.07097 7.85849 7.91478 7.73372 7.80219C7.60896 7.68961 7.44719 7.62885 7.28048 7.63195C7.11377 7.63506 6.95429 7.70181 6.83366 7.81897C6.71303 7.93613 6.64005 8.09515 6.6292 8.2645C6.6292 8.47443 6.6292 8.68189 6.6292 8.89182C6.6292 8.98568 6.59522 9.06224 6.49088 9.06471C6.38654 9.06718 6.34287 8.99062 6.34287 8.88689C6.34287 8.69177 6.34287 8.49666 6.34287 8.30154C6.33499 8.12788 6.26222 7.96384 6.13944 7.84299C6.01666 7.72213 5.85315 7.65359 5.68236 7.65138C5.51157 7.64917 5.34641 7.71346 5.22066 7.8311C5.0949 7.94875 5.01806 8.11085 5.00585 8.28425C5.00585 8.47196 5.00585 8.65719 5.00585 8.8449C5.00585 8.9511 5.00585 9.06471 4.86026 9.06224C4.71466 9.05977 4.72194 8.94369 4.72194 8.83749V5.06363C4.72194 4.91051 4.72194 4.75738 4.72194 4.60178C4.72274 4.52373 4.70793 4.44633 4.67842 4.37429C4.6489 4.30225 4.6053 4.23708 4.55025 4.18273C4.49521 4.12838 4.42988 4.086 4.35823 4.05817C4.28659 4.03033 4.21013 4.01762 4.13351 4.0208C4.05689 4.02399 3.9817 4.04301 3.91253 4.0767C3.84336 4.1104 3.78164 4.15806 3.73114 4.2168C3.68063 4.27553 3.6424 4.34411 3.61875 4.41836C3.59511 4.49262 3.58656 4.57099 3.59361 4.64871C3.57258 5.63169 3.56206 6.61549 3.56206 7.60012Z" fill="#DE81A5"/>
<path d="M6.60266 14.9996C6.29195 15.0029 5.98139 14.984 5.6733 14.9428C3.97473 14.6958 2.80514 13.6931 2.30285 12.0482C2.01639 11.1445 1.63141 10.2763 1.1551 9.45986C1.08958 9.34131 1.02649 9.22523 0.965832 9.10668C0.910911 9.00308 0.877743 8.88899 0.868432 8.77165C0.859121 8.65431 0.873869 8.53628 0.911742 8.42504C0.949615 8.31381 1.00978 8.2118 1.08844 8.12549C1.16709 8.03918 1.26251 7.97044 1.36863 7.92365C1.63937 7.79247 1.94222 7.74593 2.23894 7.78989C2.53565 7.83385 2.8129 7.96634 3.03566 8.17063V7.60751C3.03566 6.60807 3.03566 5.60615 3.03566 4.60177C3.02945 4.38974 3.08576 4.18067 3.19734 4.00152C3.30892 3.82236 3.47066 3.68131 3.66171 3.59656C3.82825 3.51688 4.01191 3.48143 4.19555 3.49353C4.37918 3.50562 4.55682 3.56486 4.71189 3.66573C4.86695 3.76659 4.99439 3.90578 5.08231 4.07033C5.17023 4.23487 5.21577 4.4194 5.21468 4.60671V7.18271C5.42296 7.09196 5.65322 7.06699 5.87561 7.11103C6.098 7.15507 6.30226 7.26608 6.46192 7.42969C6.61383 7.28679 6.79949 7.18634 7.00085 7.1381C7.2022 7.08985 7.41239 7.09547 7.61097 7.15439C7.80956 7.21332 7.98979 7.32354 8.13413 7.47435C8.27847 7.62517 8.38202 7.81143 8.43469 8.01503C8.57612 7.95204 8.72924 7.92087 8.8836 7.92365C9.17365 7.92736 9.45105 8.04511 9.65775 8.25227C9.86444 8.45943 9.9844 8.73992 9.99252 9.03506V9.5142C9.99252 10.4873 10.0095 11.49 9.99252 12.478C9.96509 13.1393 9.69206 13.7655 9.22859 14.2299C8.76512 14.6943 8.14576 14.9623 7.49562 14.9799H7.22628C7.02002 14.9922 6.81377 14.9996 6.60266 14.9996ZM2.01167 8.56333C1.90357 8.56244 1.79665 8.58606 1.69864 8.63248C1.68549 8.63698 1.67335 8.6441 1.66293 8.65343C1.65252 8.66276 1.64403 8.67411 1.63798 8.68682C1.63299 8.7125 1.63823 8.73915 1.65254 8.76091C1.70107 8.8597 1.75445 8.95355 1.80541 9.04741L1.83453 9.09433C2.33605 9.94867 2.736 10.8607 3.02595 11.8111C3.20427 12.457 3.57305 13.0317 4.0825 13.4575C4.59195 13.8833 5.21752 14.1397 5.8747 14.192C6.28478 14.2266 6.71185 14.2216 7.12436 14.2167H7.40341C7.87519 14.2145 8.32783 14.0266 8.66659 13.6924C9.00535 13.3581 9.20397 12.9035 9.22089 12.4236C9.2403 11.5345 9.22089 10.6256 9.22089 9.74883V9.06223C9.22026 8.96525 9.1823 8.87239 9.11515 8.80358C9.04801 8.73478 8.95703 8.69552 8.86176 8.69423C8.76761 8.69406 8.67696 8.73054 8.60838 8.79621C8.53981 8.86187 8.4985 8.95174 8.49293 9.04741C8.45653 9.44258 8.1799 9.46727 8.09255 9.46727C8.00519 9.46727 7.71158 9.42282 7.71158 9.00789V8.81772C7.71158 8.63248 7.71158 8.43737 7.71158 8.25213C7.70171 8.14405 7.65134 8.04399 7.57092 7.97271C7.49049 7.90143 7.38619 7.8644 7.27966 7.86931C7.17259 7.86732 7.06911 7.90855 6.99181 7.98398C6.91452 8.05942 6.8697 8.16293 6.86715 8.27189C6.86715 8.40773 6.86715 8.54357 6.86715 8.67941V8.89675C6.87155 8.94986 6.865 9.00333 6.84792 9.05371C6.83084 9.1041 6.80361 9.15031 6.76798 9.18937C6.73234 9.22842 6.68909 9.25948 6.64098 9.28054C6.59288 9.3016 6.54098 9.31221 6.48861 9.31168C6.38548 9.31246 6.28584 9.27366 6.20956 9.203C6.17062 9.16084 6.14044 9.1111 6.12085 9.05678C6.10125 9.00246 6.09263 8.94467 6.09552 8.88687V8.79796C6.09552 8.63495 6.09552 8.46947 6.09552 8.304C6.09681 8.24685 6.08684 8.19002 6.06617 8.13687C6.0455 8.08372 6.01457 8.03534 5.9752 7.99457C5.93583 7.95381 5.88883 7.9215 5.83697 7.89956C5.78511 7.87762 5.72946 7.8665 5.6733 7.86684C5.61788 7.86586 5.56282 7.87612 5.51134 7.89703C5.45986 7.91793 5.41299 7.94907 5.37346 7.98862C5.33393 8.02816 5.30254 8.07532 5.28111 8.12735C5.25968 8.17938 5.24865 8.23523 5.24866 8.29165C5.24866 8.44231 5.24866 8.59296 5.24866 8.74115V8.83994C5.25506 8.90518 5.24825 8.97106 5.22863 9.03351C5.20901 9.09596 5.17701 9.15365 5.13461 9.203C5.09843 9.23936 5.05503 9.26743 5.00732 9.28532C4.95961 9.30321 4.90869 9.31051 4.85798 9.30674C4.71725 9.30674 4.47945 9.24252 4.47945 8.84735V4.92531C4.47945 4.82158 4.47945 4.71785 4.47945 4.61165C4.47824 4.56517 4.46796 4.5194 4.44922 4.47699C4.43047 4.43459 4.40363 4.39641 4.37025 4.36467C4.33775 4.33429 4.29939 4.31114 4.25761 4.29669C4.21583 4.28223 4.17156 4.27678 4.1276 4.28069C4.0828 4.28363 4.03908 4.29597 3.9992 4.31695C3.95932 4.33793 3.92414 4.36708 3.89587 4.40258C3.86761 4.43808 3.84687 4.47915 3.83497 4.52321C3.82306 4.56727 3.82025 4.61336 3.82671 4.65857C3.82671 5.36988 3.82671 6.07871 3.82671 6.79001V10.591C3.82671 11.0158 3.53795 11.0479 3.43846 11.0455C3.38632 11.0484 3.33415 11.0403 3.28527 11.0216C3.23639 11.0029 3.19188 10.974 3.15456 10.9368C3.11373 10.8895 3.08277 10.8342 3.06359 10.7744C3.0444 10.7145 3.03737 10.6513 3.04294 10.5886C3.04294 10.4157 3.04294 10.2428 3.04294 10.0674C3.03631 9.63558 2.89339 9.21734 2.63528 8.87452C2.5622 8.77694 2.4678 8.69801 2.35956 8.644C2.25132 8.58999 2.13221 8.56237 2.01167 8.56333ZM3.31471 9.10421V9.1215V9.10421Z" fill="#DE81A5"/>
</svg>
