<svg width="22" height="22" viewBox="0 0 22 22" fill="none" xmlns="http://www.w3.org/2000/svg">
<path d="M15.2463 1H6.75347C3.57585 1 0.999878 3.57596 0.999878 6.75357V15.2464C0.999878 18.424 3.57585 21 6.75347 21H15.2463C18.4239 21 20.9999 18.424 20.9999 15.2464V6.75357C20.9999 3.57596 18.4239 1 15.2463 1Z" stroke="white" stroke-width="1.5" stroke-miterlimit="10"/>
<path d="M10.9999 15.4553C13.4606 15.4553 15.4553 13.4606 15.4553 10.9999C15.4553 8.5392 13.4606 6.54443 10.9999 6.54443C8.53921 6.54443 6.54443 8.5392 6.54443 10.9999C6.54443 13.4606 8.53921 15.4553 10.9999 15.4553Z" stroke="white" stroke-width="1.5" stroke-miterlimit="10"/>
<path d="M16.7199 6.52231C17.291 6.52231 17.754 6.05932 17.754 5.4882C17.754 4.91708 17.291 4.4541 16.7199 4.4541C16.1488 4.4541 15.6858 4.91708 15.6858 5.4882C15.6858 6.05932 16.1488 6.52231 16.7199 6.52231Z" fill="white"/>
</svg>
