<svg width="24" height="17" viewBox="0 0 24 17" fill="none" xmlns="http://www.w3.org/2000/svg">
<path d="M22.98 1.59C22.329 0.432 21.6225 0.219 20.184 0.138C18.747 0.0405 15.1335 0 12.003 0C8.8665 0 5.2515 0.0405001 3.816 0.1365C2.3805 0.219 1.6725 0.4305 1.0155 1.59C0.345 2.7465 0 4.7385 0 8.2455C0 8.2485 0 8.25 0 8.25C0 8.253 0 8.2545 0 8.2545V8.2575C0 11.7495 0.345 13.7565 1.0155 14.901C1.6725 16.059 2.379 16.269 3.8145 16.3665C5.2515 16.4505 8.8665 16.5 12.003 16.5C15.1335 16.5 18.747 16.4505 20.1855 16.368C21.624 16.2705 22.3305 16.0605 22.9815 14.9025C23.658 13.758 24 11.751 24 8.259C24 8.259 24 8.2545 24 8.2515C24 8.2515 24 8.2485 24 8.247C24 4.7385 23.658 2.7465 22.98 1.59Z" fill="#DE81A5"/>
<path d="M9.00012 12.75V3.75L16.5001 8.25L9.00012 12.75Z" fill="#FAFAFA"/>
</svg>
