<svg width="15" height="10" viewBox="0 0 15 10" fill="none" xmlns="http://www.w3.org/2000/svg">
<path d="M13.9273 0.963636C13.5327 0.261818 13.1045 0.132727 12.2327 0.0836364C11.3618 0.0245455 9.17182 0 7.27455 0C5.37364 0 3.18273 0.0245455 2.31273 0.0827274C1.44273 0.132727 1.01364 0.260909 0.615455 0.963636C0.209091 1.66455 0 2.87182 0 4.99727C0 4.99909 0 5 0 5C0 5.00182 0 5.00273 0 5.00273V5.00455C0 7.12091 0.209091 8.33727 0.615455 9.03091C1.01364 9.73273 1.44182 9.86 2.31182 9.91909C3.18273 9.97 5.37364 10 7.27455 10C9.17182 10 11.3618 9.97 12.2336 9.92C13.1055 9.86091 13.5336 9.73364 13.9282 9.03182C14.3382 8.33818 14.5455 7.12182 14.5455 5.00545C14.5455 5.00545 14.5455 5.00273 14.5455 5.00091C14.5455 5.00091 14.5455 4.99909 14.5455 4.99818C14.5455 2.87182 14.3382 1.66455 13.9273 0.963636Z" fill="#DE81A5"/>
<path d="M5 7.72725V2.27271L9.54545 4.99998L5 7.72725Z" fill="#FFFDFE"/>
</svg>
