<svg width="10" height="10" viewBox="0 0 10 10" fill="none" xmlns="http://www.w3.org/2000/svg">
<g clip-path="url(#clip0)">
<path d="M9.74999 7.91667L8.24999 6.33333C7.91666 6 7.41666 6 7.08333 6.33333L6.33333 7.16667C6.24999 7.16667 6.24999 7.08333 6.16666 7.08333C5.66666 6.83333 4.99999 6.41667 4.33333 5.75C3.58333 5 3.24999 4.33333 2.91666 3.83333C2.91666 3.75 2.83333 3.75 2.83333 3.66667L3.33333 3.16667L3.58333 2.91667C3.91666 2.58333 3.91666 2.08333 3.58333 1.75L2.08333 0.25C1.74999 -0.0833333 1.24999 -0.0833333 0.91666 0.25L0.499993 0.666667C0.41666 0.916667 0.249993 1.08333 0.16666 1.33333C0.0833265 1.58333 0.0833265 1.75 -6.87689e-06 2C-0.166674 3.66667 0.583326 5.25 2.66666 7.33333C5.58333 10.25 7.91666 10 7.99999 10C8.24999 10 8.41666 9.91667 8.66666 9.83333C8.91666 9.75 9.08333 9.58333 9.33333 9.5L9.74999 9.08333C10.0833 8.75 10.0833 8.25 9.74999 7.91667Z" fill="#DE81A5"/>
</g>
<defs>
<clipPath id="clip0">
<rect width="10" height="10" fill="white"/>
</clipPath>
</defs>
</svg>
