<svg width="24" height="24" viewBox="0 0 24 24" fill="none" xmlns="http://www.w3.org/2000/svg">
<path d="M16.6711 1H7.32894C3.83357 1 1 3.83356 1 7.32893V16.6711C1 20.1664 3.83357 23 7.32894 23H16.6711C20.1664 23 23 20.1664 23 16.6711V7.32893C23 3.83356 20.1664 1 16.6711 1Z" fill="#DE81A5" stroke="#DE81A5" stroke-miterlimit="10"/>
<path d="M15.3365 4.14258H8.66356C6.16686 4.14258 4.14288 6.16655 4.14288 8.66324V15.3362C4.14288 17.8329 6.16686 19.8569 8.66356 19.8569H15.3365C17.8332 19.8569 19.8572 17.8329 19.8572 15.3362V8.66324C19.8572 6.16655 17.8332 4.14258 15.3365 4.14258Z" stroke="white" stroke-miterlimit="10"/>
<path d="M12.0001 15.5004C13.9335 15.5004 15.5008 13.9331 15.5008 11.9997C15.5008 10.0663 13.9335 8.49902 12.0001 8.49902C10.0667 8.49902 8.49939 10.0663 8.49939 11.9997C8.49939 13.9331 10.0667 15.5004 12.0001 15.5004Z" fill="#DE81A5" stroke="white" stroke-miterlimit="10"/>
<path d="M16.4944 8.48195C16.9431 8.48195 17.3069 8.11818 17.3069 7.66944C17.3069 7.22071 16.9431 6.85693 16.4944 6.85693C16.0457 6.85693 15.6819 7.22071 15.6819 7.66944C15.6819 8.11818 16.0457 8.48195 16.4944 8.48195Z" fill="white"/>
</svg>
