<svg width="13" height="16" viewBox="0 0 13 16" fill="none" xmlns="http://www.w3.org/2000/svg">
<g clip-path="url(#clip0)">
<path d="M12.9995 14.0894C8.81015 16.4943 4.09721 16.7736 0.0436379 14.0894C-0.0254837 13.8214 -0.016871 13.5368 0.0682985 13.2744C0.153468 13.012 0.311048 12.7846 0.519545 12.6231C0.967576 12.2843 1.47339 12.0722 1.99187 11.907C2.51035 11.7417 3.03542 11.6106 3.56302 11.4845C3.83689 11.4283 4.0922 11.2943 4.30298 11.0961C4.70844 10.7001 4.96185 10.2 5.16964 9.65353C5.07994 9.59569 4.99935 9.5373 4.91623 9.48828C4.90055 9.4815 4.88362 9.47882 4.86681 9.48045C4.84999 9.48208 4.83377 9.48796 4.81943 9.49764C4.08149 10.2176 3.22598 10.2391 2.33296 9.97575C1.97311 9.86944 1.62594 9.71246 1.24278 9.56649C1.26257 9.55098 1.28322 9.53681 1.30461 9.52407C2.11553 9.23379 2.56356 8.59593 2.76528 7.72341C2.80488 7.55468 2.83567 7.38364 2.85752 7.21113C2.86739 7.12548 2.8603 7.03854 2.83674 6.95611C2.5367 5.92826 2.44699 4.87507 2.50274 3.80315C2.52579 3.23964 2.61087 2.68114 2.75615 2.13963C2.89824 1.63091 3.19233 1.18821 3.5919 0.881537C4.11596 0.460701 4.71452 0.235411 5.34805 0.110373C5.82699 0.0172821 6.31101 -0.0361577 6.79705 0.0183746C7.01462 0.0383514 7.22529 0.111069 7.4136 0.231176C7.60191 0.351283 7.76306 0.515732 7.8852 0.712427C7.8999 0.735012 7.91409 0.757594 7.9298 0.779076C7.93865 0.786803 7.94835 0.793286 7.95869 0.79836L8.06005 0.728404C8.67686 0.287739 9.31089 0.386338 9.78781 1.00382C10.2014 1.53758 10.4011 2.16663 10.4609 2.85407C10.581 4.24326 10.4244 5.60822 10.1745 6.96877C10.1583 7.09055 10.1614 7.21443 10.1836 7.33507C10.2566 7.83412 10.3985 8.30564 10.6839 8.71491C10.9097 9.03888 11.217 9.28476 11.5688 9.42273L11.7715 9.50535C11.5287 9.61552 11.3235 9.71687 11.1126 9.805C10.6565 9.99614 10.1882 10.1256 9.69659 10.1278C9.12489 10.1278 8.61857 9.9394 8.19436 9.51306C8.17916 9.49764 8.16243 9.48387 8.14013 9.46404L7.8553 9.64746C7.85977 9.67507 7.86709 9.70204 7.87709 9.72788C8.04333 10.0512 8.19082 10.3889 8.38391 10.6929C8.67737 11.1584 9.08384 11.4244 9.61397 11.5192C10.4933 11.6784 11.3478 11.9527 12.1481 12.395C12.315 12.4928 12.4754 12.6032 12.628 12.7255C12.7328 12.8043 12.8188 12.909 12.879 13.031C12.9392 13.153 12.9718 13.2889 12.9742 13.4273C12.9793 13.6443 12.9889 13.8586 12.9995 14.0894Z" fill="#DE81A5"/>
</g>
<defs>
<clipPath id="clip0">
<rect width="13" height="16" fill="white"/>
</clipPath>
</defs>
</svg>
