<svg width="15" height="12" viewBox="0 0 15 12" fill="none" xmlns="http://www.w3.org/2000/svg">
<g clip-path="url(#clip0)">
<path d="M11.7836 3.27306C12.4678 3.27306 13.1305 3.27306 13.7919 3.27306C13.8923 3.26905 13.9929 3.2736 14.0925 3.28669C14.3461 3.32573 14.5772 3.45705 14.743 3.65632C14.9088 3.85558 14.9981 4.10929 14.9942 4.37042C14.9942 6.19298 15.0009 8.01554 14.9942 9.8381C14.9925 10.4106 14.7679 10.959 14.3698 11.3632C13.9716 11.7674 13.4324 11.9945 12.8701 11.9946C9.44619 12.0001 6.02204 12.0001 2.59766 11.9946C1.91141 11.9895 1.25463 11.7099 0.768984 11.2162C0.283337 10.7225 0.00772804 10.0542 0.00159888 9.35553C-0.00688062 6.78323 -0.00688062 4.21115 0.00159888 1.6393C-0.000458281 1.4239 0.0396931 1.21024 0.119706 1.01083C0.199719 0.811419 0.317985 0.63026 0.467587 0.477942C0.617189 0.325624 0.795123 0.205202 0.990979 0.123737C1.18683 0.0422718 1.39668 0.00139988 1.60824 0.00349438C4.46895 -0.000595133 7.32967 -0.000595133 10.1904 0.00349438C10.4002 0.00376206 10.6078 0.0461442 10.8015 0.12823C10.9951 0.210316 11.171 0.330495 11.319 0.481869C11.467 0.633243 11.5842 0.812842 11.6639 1.0104C11.7437 1.20795 11.7843 1.41958 11.7836 1.63316C11.7876 2.17161 11.7836 2.71075 11.7836 3.27306ZM11.7984 4.3711C11.7929 4.38594 11.7886 4.40121 11.7856 4.41676C11.7856 6.23932 11.7816 8.06188 11.7856 9.88376C11.7871 10.0326 11.8221 10.1792 11.8879 10.3121C11.9537 10.445 12.0486 10.5608 12.1652 10.6505C12.5133 10.9361 12.9016 10.9913 13.3086 10.7991C13.7156 10.6069 13.9205 10.2614 13.9218 9.80539C13.9249 8.02826 13.9249 6.25136 13.9218 4.47469C13.9218 4.44265 13.9178 4.40654 13.9158 4.3711H11.7984Z" fill="#DE81A5"/>
<path d="M5.88037 4.36284C5.17278 4.36284 4.46585 4.36284 3.75826 4.36284C3.65995 4.36637 3.56271 4.34098 3.47818 4.28973C3.39366 4.23848 3.32542 4.16354 3.28163 4.07384C3.23338 3.98988 3.20971 3.89362 3.21338 3.79641C3.21706 3.69921 3.24794 3.6051 3.30238 3.52516C3.42221 3.33568 3.60095 3.27093 3.81784 3.27161C4.95454 3.27434 6.09102 3.27434 7.22727 3.27161C7.46693 3.27161 7.70658 3.27161 7.94624 3.27161C8.32916 3.27161 8.5735 3.48836 8.57082 3.82166C8.56814 4.15495 8.3238 4.36215 7.9362 4.36215H5.88037V4.36284Z" fill="white"/>
<path d="M5.90379 5.4547C6.61138 5.4547 7.31897 5.4547 8.02656 5.4547C8.13893 5.45116 8.24943 5.48451 8.34176 5.5498C8.4341 5.61509 8.50337 5.70887 8.53935 5.81731C8.57957 5.92135 8.58517 6.03595 8.55531 6.14354C8.52544 6.25114 8.46175 6.3458 8.374 6.41301C8.2764 6.48626 8.16026 6.52953 8.03928 6.53773C6.60714 6.54591 5.17545 6.54728 3.7442 6.54183C3.61073 6.52952 3.48664 6.46671 3.39643 6.36579C3.30622 6.26487 3.25646 6.13318 3.25696 5.99672C3.25747 5.86027 3.3082 5.72898 3.39915 5.62876C3.49011 5.52853 3.61466 5.46667 3.74822 5.45538C4.46652 5.45129 5.18549 5.4547 5.90379 5.4547Z" fill="white"/>
<path d="M5.87564 8.72564C5.16805 8.72564 4.46046 8.72564 3.75287 8.72564C3.62361 8.72355 3.49946 8.67392 3.40332 8.58592C3.30719 8.49792 3.24556 8.37749 3.22982 8.24685C3.21407 8.1162 3.24528 7.98417 3.31766 7.87512C3.39005 7.76607 3.49874 7.68735 3.62367 7.65351C3.6726 7.6419 3.72273 7.63641 3.77296 7.63715C5.18769 7.63715 6.60265 7.63715 8.01783 7.63715C8.14801 7.63594 8.27418 7.68304 8.37272 7.76967C8.47127 7.8563 8.53544 7.97652 8.55325 8.10784C8.57105 8.23915 8.54126 8.37257 8.46945 8.48314C8.39764 8.59371 8.28874 8.67385 8.1631 8.7086C8.09215 8.72286 8.0198 8.72858 7.94754 8.72564C7.25668 8.72654 6.56605 8.72654 5.87564 8.72564Z" fill="white"/>
</g>
<defs>
<clipPath id="clip0">
<rect width="15" height="12" fill="white"/>
</clipPath>
</defs>
</svg>
