<svg width="14" height="13" viewBox="0 0 14 13" fill="none" xmlns="http://www.w3.org/2000/svg">
<path d="M2.49707 12.4293C2.5637 12.066 2.63033 11.6442 2.71029 11.2224C2.87021 10.314 3.03013 9.39907 3.19671 8.49064C3.2167 8.36735 3.18339 8.29597 3.09676 8.21161C2.17056 7.33562 1.24436 6.45314 0.31816 5.57715C0.224874 5.4928 0.138248 5.39547 0.078278 5.29165C-0.0749785 5.0321 -0.00167947 4.79202 0.284844 4.68171C0.464753 4.61682 0.65799 4.58437 0.851227 4.55841C2.08394 4.38321 3.32332 4.20802 4.55604 4.03931C4.66931 4.02633 4.70263 3.96145 4.73595 3.88358C5.30899 2.74804 5.88204 1.61898 6.46175 0.483438C6.50839 0.392594 6.5617 0.30176 6.62167 0.217406C6.84156 -0.0681016 7.14807 -0.0745968 7.36796 0.210911C7.43459 0.295265 7.4879 0.392601 7.53454 0.489933C8.10759 1.61899 8.6873 2.75452 9.26034 3.89006C9.30699 3.9809 9.35363 4.02633 9.46691 4.03931C10.7663 4.22099 12.0723 4.40268 13.3716 4.59086C13.5115 4.61032 13.6581 4.65575 13.7781 4.71415C13.9846 4.81797 14.0579 5.02561 13.9513 5.22676C13.8847 5.35654 13.7847 5.47334 13.6848 5.57067C12.7719 6.44017 11.859 7.30966 10.9395 8.17267C10.8129 8.29596 10.7796 8.39979 10.8129 8.5685C11.0395 9.82084 11.2593 11.0797 11.4792 12.3385C11.4792 12.3515 11.4859 12.3709 11.4859 12.3839C11.5059 12.5851 11.4992 12.7797 11.3193 12.916C11.1461 13.0458 10.9462 13.0068 10.7663 12.9225C10.2932 12.6954 9.82673 12.4553 9.36029 12.2152C8.614 11.8324 7.86771 11.456 7.12142 11.0667C7.02147 11.0148 6.95483 11.0213 6.86154 11.0732C5.73544 11.6507 4.60268 12.2282 3.47658 12.8057C3.37663 12.8576 3.27001 12.916 3.1634 12.9484C2.75693 13.0782 2.4904 12.89 2.49707 12.4293Z" fill="#DE81A5"/>
</svg>
