<svg width="16" height="15" viewBox="0 0 16 15" fill="none" xmlns="http://www.w3.org/2000/svg">
<path d="M7.82668 1.00539C6.67536 0.958713 5.53206 1.21607 4.51179 1.75157C3.49153 2.28707 2.63029 3.08184 2.01471 4.05589C1.39914 5.02994 1.05096 6.14893 1.00518 7.30028C0.959404 8.45163 1.21765 9.59473 1.75395 10.6146V10.8051L1.13478 13.5676C1.12475 13.6082 1.12559 13.6507 1.13722 13.6909C1.14886 13.7311 1.17087 13.7675 1.20105 13.7965C1.23123 13.8254 1.2685 13.846 1.30913 13.8559C1.34975 13.8659 1.39229 13.865 1.43246 13.8534L4.24258 13.1389H4.45691C5.5029 13.7177 6.67889 14.0209 7.87431 14.0201C8.75799 14.0737 9.6433 13.9459 10.4758 13.6446C11.3082 13.3433 12.0702 12.8749 12.7149 12.2681C13.3596 11.6614 13.8733 10.9291 14.2244 10.1164C14.5756 9.30375 14.7567 8.4278 14.7567 7.54249C14.7567 6.65719 14.5756 5.78124 14.2244 4.96855C13.8733 4.15586 13.3596 3.42361 12.7149 2.81685C12.0702 2.2101 11.3082 1.74166 10.4758 1.44037C9.6433 1.13908 8.75799 1.01131 7.87431 1.06492L7.82668 1.00539Z" fill="#DE81A5" stroke="#DE81A5" stroke-width="0.7" stroke-miterlimit="10"/>
<path d="M4.99246 8.31658C5.32127 8.31658 5.58783 8.05003 5.58783 7.72122C5.58783 7.39241 5.32127 7.12585 4.99246 7.12585C4.66365 7.12585 4.39709 7.39241 4.39709 7.72122C4.39709 8.05003 4.66365 8.31658 4.99246 8.31658Z" fill="white"/>
<path d="M7.82644 8.31658C8.15526 8.31658 8.42181 8.05003 8.42181 7.72122C8.42181 7.39241 8.15526 7.12585 7.82644 7.12585C7.49763 7.12585 7.23108 7.39241 7.23108 7.72122C7.23108 8.05003 7.49763 8.31658 7.82644 8.31658Z" fill="white"/>
<path d="M10.7439 8.31658C11.0727 8.31658 11.3393 8.05003 11.3393 7.72122C11.3393 7.39241 11.0727 7.12585 10.7439 7.12585C10.4151 7.12585 10.1486 7.39241 10.1486 7.72122C10.1486 8.05003 10.4151 8.31658 10.7439 8.31658Z" fill="white"/>
</svg>
