<svg width="156" height="34" viewBox="0 0 156 34" fill="none" xmlns="http://www.w3.org/2000/svg">
<path fill-rule="evenodd" clip-rule="evenodd" d="M39.4476 0.0058136C48.1307 0.0058136 55.1637 7.60773 55.1637 17.0029C55.1637 26.3981 48.1307 34 39.4476 34C30.7644 34 23.7314 26.3981 23.7314 17.0029C23.6921 7.60773 30.7644 0.0058136 39.4476 0.0058136ZM39.4476 7.52976C43.4159 7.52976 46.6377 11.779 46.6377 17.0029C46.6377 22.2268 43.4159 26.4761 39.4476 26.4761C35.4792 26.4371 32.2181 22.2268 32.2181 17.0029C32.2181 11.779 35.4792 7.52976 39.4476 7.52976Z" fill="black"/>
<path fill-rule="evenodd" clip-rule="evenodd" d="M119.207 8.81623C119.757 9.01116 120.111 9.12811 120.739 9.12811C122.822 9.12811 124.511 7.45179 124.511 5.38563C124.511 4.02118 123.804 2.89064 122.704 2.22791C120.425 0.824481 117.753 0.0058136 114.924 0.0058136C106.241 0.0058136 99.2082 7.60773 99.2082 17.0029C99.2082 26.3981 106.241 34 114.924 34C117.91 34 120.7 33.1034 123.057 31.544C123.215 31.4271 123.411 31.3101 123.568 31.1931C124.393 30.4914 124.943 29.4778 124.943 28.3083C124.943 25.7354 122.35 23.7862 119.639 24.9167L117.517 25.8523C116.653 26.2811 115.907 26.515 114.885 26.515C110.917 26.515 107.695 22.2658 107.695 17.0419C107.695 10.9214 112.135 6.24328 116.81 7.9196C117.635 8.1535 118.421 8.50436 119.207 8.81623Z" fill="black"/>
<path fill-rule="evenodd" clip-rule="evenodd" d="M15.2447 16.1062L25.2637 27.5286C26.6781 29.127 26.4817 31.583 24.8708 32.9864C23.2599 34.3898 20.7846 34.1949 19.3701 32.5965L8.09381 19.7318V29.9066C8.09381 32.0898 6.28646 33.922 4.04691 33.922C1.80736 33.922 0 32.1287 0 29.9456V4.02115C0 1.83804 1.80736 0.00578402 4.04691 0.00578402C6.24717 0.00578402 8.09381 1.79906 8.09381 4.02115V12.4807L17.8378 1.33125C19.2523 -0.267105 21.7276 -0.462026 23.3385 0.941404C24.9494 2.34483 25.1458 4.80084 23.7314 6.39919L15.2447 16.1062Z" fill="black"/>
<path fill-rule="evenodd" clip-rule="evenodd" d="M140.267 0.0058136C148.95 0.0058136 155.983 7.60773 155.983 17.0029C155.983 26.3981 148.95 34 140.267 34C131.583 34 124.55 26.3981 124.55 17.0029C124.511 7.60773 131.544 0.0058136 140.267 0.0058136ZM140.267 7.52976C144.235 7.52976 147.457 11.779 147.457 17.0029C147.457 22.2268 144.235 26.4761 140.267 26.4761C136.298 26.4761 133.076 22.2268 133.076 17.0029C133.037 11.779 136.259 7.52976 140.267 7.52976Z" fill="black"/>
<path fill-rule="evenodd" clip-rule="evenodd" d="M69.701 0.239715C72.3728 0.707525 74.8874 2.14994 76.9305 4.48899C76.9698 4.45 76.9698 4.45 77.009 4.41102C77.0483 4.45 77.0483 4.45 77.0876 4.48899C79.0914 2.18892 81.6453 0.707525 84.3171 0.239715C95.0433 -1.59254 100.269 9.40099 93.8253 19.303C89.1105 26.554 80.4666 32.6745 77.0483 32.6356C73.6301 32.6745 64.9469 26.515 60.2714 19.303C53.7492 9.40099 58.9355 -1.59254 69.701 0.239715Z" fill="#DE81A5"/>
</svg>
