<svg width="300" height="300" viewBox="0 0 300 300" fill="none" xmlns="http://www.w3.org/2000/svg">
<rect width="300" height="300" fill="white"/>
<g opacity="0.4">
<path fill-rule="evenodd" clip-rule="evenodd" d="M109.448 131.006C118.131 131.006 125.164 138.608 125.164 148.003C125.164 157.398 118.131 165 109.448 165C100.764 165 93.7314 157.398 93.7314 148.003C93.6921 138.608 100.764 131.006 109.448 131.006ZM109.448 138.53C113.416 138.53 116.638 142.779 116.638 148.003C116.638 153.227 113.416 157.476 109.448 157.476C105.479 157.437 102.218 153.227 102.218 148.003C102.218 142.779 105.479 138.53 109.448 138.53Z" fill="#D3D3D3"/>
<path fill-rule="evenodd" clip-rule="evenodd" d="M189.207 139.816C189.757 140.011 190.111 140.128 190.739 140.128C192.822 140.128 194.511 138.452 194.511 136.386C194.511 135.021 193.804 133.891 192.704 133.228C190.425 131.824 187.753 131.006 184.924 131.006C176.241 131.006 169.208 138.608 169.208 148.003C169.208 157.398 176.241 165 184.924 165C187.91 165 190.7 164.103 193.057 162.544C193.215 162.427 193.411 162.31 193.568 162.193C194.393 161.491 194.943 160.478 194.943 159.308C194.943 156.735 192.35 154.786 189.639 155.917L187.518 156.852C186.653 157.281 185.907 157.515 184.885 157.515C180.917 157.515 177.695 153.266 177.695 148.042C177.695 141.921 182.135 137.243 186.81 138.92C187.635 139.153 188.421 139.504 189.207 139.816Z" fill="#D3D3D3"/>
<path fill-rule="evenodd" clip-rule="evenodd" d="M85.2447 147.106L95.2637 158.529C96.6781 160.127 96.4817 162.583 94.8708 163.986C93.2599 165.39 90.7846 165.195 89.3701 163.597L78.0938 150.732V160.907C78.0938 163.09 76.2865 164.922 74.0469 164.922C71.8074 164.922 70 163.129 70 160.946V135.021C70 132.838 71.8074 131.006 74.0469 131.006C76.2472 131.006 78.0938 132.799 78.0938 135.021V143.481L87.8378 132.331C89.2523 130.733 91.7276 130.538 93.3385 131.941C94.9494 133.345 95.1458 135.801 93.7314 137.399L85.2447 147.106Z" fill="#D3D3D3"/>
<path fill-rule="evenodd" clip-rule="evenodd" d="M210.267 131.006C218.95 131.006 225.983 138.608 225.983 148.003C225.983 157.398 218.95 165 210.267 165C201.583 165 194.55 157.398 194.55 148.003C194.511 138.608 201.544 131.006 210.267 131.006ZM210.267 138.53C214.235 138.53 217.457 142.779 217.457 148.003C217.457 153.227 214.235 157.476 210.267 157.476C206.298 157.476 203.076 153.227 203.076 148.003C203.037 142.779 206.259 138.53 210.267 138.53Z" fill="#D3D3D3"/>
<path fill-rule="evenodd" clip-rule="evenodd" d="M139.701 131.24C142.373 131.708 144.887 133.15 146.93 135.489C146.97 135.45 146.97 135.45 147.009 135.411C147.048 135.45 147.048 135.45 147.088 135.489C149.091 133.189 151.645 131.708 154.317 131.24C165.043 129.407 170.269 140.401 163.825 150.303C159.11 157.554 150.467 163.675 147.048 163.636C143.63 163.675 134.947 157.515 130.271 150.303C123.749 140.401 128.935 129.407 139.701 131.24Z" fill="#D3D3D3"/>
</g>
</svg>
