<svg width="156" height="34" viewBox="0 0 156 34" fill="none" xmlns="http://www.w3.org/2000/svg">
<g opacity="0.4">
<path fill-rule="evenodd" clip-rule="evenodd" d="M39.4475 0.00579834C48.1307 0.00579834 55.1636 7.60771 55.1636 17.0029C55.1636 26.3981 48.1307 34 39.4475 34C30.7643 34 23.7314 26.3981 23.7314 17.0029C23.6921 7.60771 30.7643 0.00579834 39.4475 0.00579834ZM39.4475 7.52974C43.4158 7.52974 46.6376 11.779 46.6376 17.0029C46.6376 22.2268 43.4158 26.476 39.4475 26.476C35.4792 26.4371 32.2181 22.2268 32.2181 17.0029C32.2181 11.779 35.4792 7.52974 39.4475 7.52974Z" fill="#D3D3D3"/>
<path fill-rule="evenodd" clip-rule="evenodd" d="M119.207 8.81622C119.757 9.01114 120.111 9.12809 120.739 9.12809C122.822 9.12809 124.511 7.45177 124.511 5.38561C124.511 4.02117 123.804 2.89063 122.704 2.2279C120.425 0.824466 117.753 0.00579834 114.924 0.00579834C106.241 0.00579834 99.2083 7.60771 99.2083 17.0029C99.2083 26.3981 106.241 34 114.924 34C117.91 34 120.7 33.1034 123.057 31.544C123.215 31.427 123.411 31.3101 123.568 31.1931C124.393 30.4914 124.943 29.4778 124.943 28.3083C124.943 25.7353 122.35 23.7861 119.639 24.9167L117.518 25.8523C116.653 26.2811 115.907 26.515 114.885 26.515C110.917 26.515 107.695 22.2658 107.695 17.0419C107.695 10.9214 112.135 6.24326 116.81 7.91958C117.635 8.15349 118.421 8.50435 119.207 8.81622Z" fill="#D3D3D3"/>
<path fill-rule="evenodd" clip-rule="evenodd" d="M15.2447 16.1062L25.2637 27.5286C26.6781 29.127 26.4817 31.583 24.8708 32.9864C23.2599 34.3898 20.7846 34.1949 19.3701 32.5965L8.09381 19.7318V29.9066C8.09381 32.0898 6.28646 33.922 4.04691 33.922C1.80736 33.922 0 32.1287 0 29.9456V4.02115C0 1.83804 1.80736 0.00578402 4.04691 0.00578402C6.24717 0.00578402 8.09381 1.79906 8.09381 4.02115V12.4807L17.8378 1.33125C19.2523 -0.267105 21.7276 -0.462026 23.3385 0.941404C24.9494 2.34483 25.1458 4.80084 23.7314 6.39919L15.2447 16.1062Z" fill="#D3D3D3"/>
<path fill-rule="evenodd" clip-rule="evenodd" d="M140.267 0.00579834C148.95 0.00579834 155.983 7.60771 155.983 17.0029C155.983 26.3981 148.95 34 140.267 34C131.583 34 124.55 26.3981 124.55 17.0029C124.511 7.60771 131.544 0.00579834 140.267 0.00579834ZM140.267 7.52974C144.235 7.52974 147.457 11.779 147.457 17.0029C147.457 22.2268 144.235 26.476 140.267 26.476C136.298 26.476 133.076 22.2268 133.076 17.0029C133.037 11.779 136.259 7.52974 140.267 7.52974Z" fill="#D3D3D3"/>
<path fill-rule="evenodd" clip-rule="evenodd" d="M69.701 0.239699C72.3728 0.707509 74.8873 2.14992 76.9304 4.48897C76.9697 4.44999 76.9697 4.44999 77.009 4.41101C77.0483 4.44999 77.0483 4.44999 77.0876 4.48897C79.0914 2.18891 81.6453 0.707509 84.317 0.239699C95.0433 -1.59256 100.269 9.40098 93.8253 19.303C89.1105 26.554 80.4666 32.6745 77.0483 32.6355C73.63 32.6745 64.9469 26.515 60.2713 19.303C53.7491 9.40098 58.9354 -1.59256 69.701 0.239699Z" fill="#D3D3D3"/>
</g>
</svg>
